<svg width="512" height="512" viewBox="0 0 512 512" xmlns="http://www.w3.org/2000/svg">
  <!-- Perfect green squircle background -->
  <path d="M100,0 L412,0 Q512,0 512,100 L512,412 Q512,512 412,512 L100,512 Q0,512 0,412 L0,100 Q0,0 100,0 Z" fill="#8bce27" />
  
  <!-- Precisely mathematical centered pizza slice (FILLED) -->
  <g transform="translate(-111.604, -110.364) scale(1.147)">
    <path d="M 263.774 177.624 C 262.986 179.006, 253 210.704, 253 211.824 C 253 212.377, 256.488 213.119, 260.750 213.474 C 302.714 216.962, 346.599 234.408, 378.485 260.276 C 398.593 276.589, 416.694 298.448, 429.025 321.308 C 431.307 325.539, 433.637 329, 434.204 329 C 434.967 329, 461.555 315.575, 467.238 312.319 C 468.723 311.469, 455.305 287.743, 446.921 276.393 C 434.893 260.112, 419.518 244.017, 403.657 231.105 C 378.224 210.399, 341.686 192.015, 310.181 184.071 C 292.768 179.680, 264.816 175.797, 263.774 177.624 M 246.975 229.565 C 246.439 230.976, 246 232.399, 246 232.727 C 246 233.457, 239.234 254.520, 192.117 400.472 C 181.113 434.556, 172.286 462.620, 172.502 462.835 C 172.717 463.050, 184.054 457.492, 197.696 450.484 C 277.960 409.251, 278.478 409, 283.376 409 C 287.553 409, 288.232 409.333, 290.011 412.250 C 292.500 416.332, 292.498 418.764, 290 427.500 C 287.580 435.962, 287.502 439.148, 289.606 443.583 C 291.725 448.048, 296.644 451, 301.964 451 C 307.329 451, 311.244 448.690, 313.906 443.954 C 316.570 439.213, 316.549 434.938, 313.820 426.355 C 312.423 421.960, 311.620 416.802, 311.583 411.982 C 311.535 405.561, 311.960 403.607, 314.501 398.585 C 316.249 395.130, 319.543 390.885, 322.488 388.292 C 327.431 383.940, 331.638 381.671, 392 350.795 C 407.125 343.058, 419.666 336.586, 419.868 336.412 C 420.071 336.239, 418.559 333.037, 416.509 329.298 C 385.185 272.176, 328.076 234.717, 262.144 228.048 C 248.064 226.623, 248.095 226.620, 246.975 229.565" fill="#000000" />
  </g>
</svg>